<svg width="332" height="63" viewBox="0 0 332 63" fill="none" xmlns="http://www.w3.org/2000/svg">
<g clip-path="url(#clip0_1107_9076)">
<path d="M95.5 42.99C95.58 43.98 95.97 44.91 96.68 45.78C97.38 46.65 97.73 47.31 97.73 47.76V48.01C97.73 48.71 97.27 49.06 96.37 49.06H85.58C84.67 49.06 84.22 48.71 84.22 48.01V47.76C84.22 47.35 84.6 46.71 85.37 45.84C86.13 44.97 86.5 44.04 86.46 43.05L85.84 31.15C85.55 25.2 83.75 22.22 80.45 22.22C78.8 22.22 77.5 22.84 76.57 24.08C75.64 25.32 75.17 26.97 75.17 29.04V43.11C75.17 44.06 75.61 44.97 76.5 45.84C77.39 46.71 77.83 47.35 77.83 47.76V48.01C77.83 48.71 77.33 49.06 76.34 49.06H64.87C63.92 49.06 63.44 48.71 63.44 48.01V47.76C63.44 47.35 63.87 46.71 64.74 45.84C65.61 44.97 66.04 44.06 66.04 43.11V12.24C66.04 11.25 65.58 10.36 64.64 9.57C63.71 8.79 63.24 8.19 63.24 7.77V7.58C63.24 6.96 63.65 6.44 64.48 6.03L72.66 2.43C73.36 2.14 73.91 2.1 74.3 2.31C74.69 2.52 74.89 2.93 74.89 3.55L74.83 22.15C76.77 19.84 79.48 18.68 82.95 18.68C86.09 18.68 88.76 19.7 90.95 21.75C93.14 23.8 94.38 27.01 94.67 31.39L95.48 42.98L95.5 42.99Z" fill="white"/>
<path d="M115.78 49.69C110.86 49.69 106.8 48.17 103.6 45.13C100.4 42.09 98.79 38.38 98.79 34C98.79 29.62 100.36 25.92 103.5 23.03C106.64 20.14 110.42 18.69 114.85 18.69C119.6 18.69 123.57 20.19 126.75 23.19C129.93 26.19 131.52 29.9 131.52 34.32C131.52 38.74 130.02 42.41 127.02 45.32C124.02 48.23 120.27 49.69 115.77 49.69H115.78ZM116.9 46.96C118.59 46.96 119.91 46.18 120.84 44.6C121.77 43.03 122.24 40.82 122.24 37.97C122.24 35.61 121.9 33.19 121.22 30.69C120.54 28.19 119.51 26.02 118.15 24.18C116.79 22.34 115.28 21.42 113.62 21.42C109.82 21.42 107.92 24.44 107.92 30.47C107.92 32.7 108.26 35.06 108.94 37.54C109.62 40.02 110.68 42.21 112.1 44.11C113.53 46.01 115.13 46.96 116.9 46.96V46.96Z" fill="white"/>
<path d="M151.86 18.69C155.74 18.69 159.13 20.03 162.03 22.72C164.92 25.41 166.37 29.07 166.37 33.69C166.37 38.31 164.95 42.19 162.12 45.19C159.29 48.19 155.89 49.69 151.92 49.69C149.03 49.69 146.61 48.88 144.67 47.27V56.51C144.67 57.5 145.1 58.43 145.97 59.3C146.84 60.17 147.27 60.81 147.27 61.22V61.47C147.27 62.17 146.79 62.52 145.84 62.52H134.62C133.67 62.52 133.19 62.17 133.19 61.47V61.22C133.19 60.81 133.59 60.17 134.4 59.3C135.21 58.43 135.61 57.5 135.61 56.51V28.61C135.61 27.7 135.13 26.86 134.18 26.1C133.23 25.34 132.75 24.73 132.75 24.27V23.96C132.75 23.38 133.16 22.89 133.99 22.47L140.93 19.06C142.5 18.28 143.29 18.65 143.29 20.18L143.23 22.78C144.97 20.05 147.84 18.69 151.85 18.69H151.86ZM150.99 47.02C152.97 47.02 154.51 46.19 155.61 44.54C156.7 42.89 157.25 40.51 157.25 37.41C157.25 33.19 156.57 29.46 155.2 26.22C153.84 22.98 152 21.35 149.68 21.35C148.4 21.35 147.28 21.81 146.33 22.75C145.38 23.68 144.82 24.89 144.66 26.38V38.22C144.66 40.62 145.3 42.68 146.58 44.42C147.86 46.16 149.33 47.02 150.98 47.02H150.99Z" fill="white"/>
<path d="M219.94 43.05C220.02 44.04 220.41 44.97 221.12 45.84C221.82 46.71 222.17 47.37 222.17 47.82V48.07C222.17 48.77 221.71 49.12 220.81 49.12H210.08C209.13 49.12 208.65 48.77 208.65 48.07V47.82C208.65 47.41 209.03 46.77 209.8 45.9C210.56 45.03 210.91 44.1 210.82 43.11L210.2 31.76C210.03 28.33 209.52 25.88 208.65 24.41C207.78 22.94 206.5 22.21 204.81 22.21C203.36 22.21 202.19 22.81 201.28 24.01C200.37 25.21 199.87 26.76 199.79 28.66C199.95 29.49 200.04 30.48 200.04 31.64V43.11C200.04 44.1 200.4 45.03 201.12 45.9C201.84 46.77 202.2 47.41 202.2 47.82V48.07C202.2 48.77 201.74 49.12 200.84 49.12H190.11C189.16 49.12 188.68 48.77 188.68 48.07V47.82C188.68 47.41 189.05 46.77 189.8 45.9C190.54 45.03 190.92 44.1 190.92 43.11V31.02C190.92 28.21 190.42 26.04 189.43 24.51C188.44 22.98 187.14 22.22 185.52 22.22C183.9 22.22 182.56 22.86 181.61 24.14C180.66 25.42 180.18 27.08 180.18 29.1V43.11C180.18 44.1 180.62 45.03 181.51 45.9C182.4 46.77 182.84 47.41 182.84 47.82V48.07C182.84 48.77 182.36 49.12 181.41 49.12H169.88C168.93 49.12 168.45 48.77 168.45 48.07V47.82C168.45 47.41 168.89 46.77 169.78 45.9C170.67 45.03 171.11 44.1 171.11 43.11V28.66C171.11 27.88 170.86 27.21 170.37 26.68C169.87 26.14 169.37 25.68 168.85 25.28C168.33 24.89 168.07 24.48 168.07 24.07V23.82C168.07 23.37 168.5 22.93 169.37 22.52L177.18 18.92C177.88 18.59 178.42 18.56 178.79 18.83C179.16 19.1 179.35 19.56 179.35 20.23V23.14C181.29 20.16 184.14 18.68 187.91 18.68C192.62 18.68 196.05 20.54 198.2 24.26C199.03 22.52 200.28 21.16 201.95 20.17C203.62 19.18 205.51 18.68 207.62 18.68C210.76 18.68 213.39 19.72 215.49 21.81C217.6 23.9 218.82 27.3 219.15 32.01L219.89 43.05H219.94Z" fill="white"/>
<path d="M248.7 39.64C249.07 39.14 249.53 38.98 250.06 39.14C250.6 39.31 250.84 39.7 250.8 40.32C250.59 42.47 249.35 44.57 247.08 46.61C244.81 48.66 241.85 49.68 238.21 49.68C233.83 49.68 230.23 48.23 227.42 45.34C224.61 42.45 223.2 38.64 223.2 33.93C223.2 29.51 224.67 25.86 227.6 22.99C230.53 20.12 234.07 18.68 238.2 18.68C241.96 18.68 244.85 19.57 246.88 21.35C248.9 23.13 249.92 25.17 249.92 27.49C249.92 29.39 249.01 30.76 247.19 31.58L233.43 37.84C235.12 41.44 237.85 43.23 241.61 43.23C243.18 43.23 244.6 42.89 245.86 42.21C247.12 41.53 248.06 40.67 248.68 39.64H248.7ZM237.11 21.41C235.5 21.41 234.22 22.18 233.27 23.73C232.32 25.28 231.84 27.25 231.84 29.65C231.84 31.68 232.05 33.45 232.46 34.98L240.46 30.95C241.53 30.41 242.07 29.44 242.07 28.04C242.07 26.64 241.61 25.18 240.71 23.67C239.8 22.16 238.6 21.41 237.11 21.41V21.41Z" fill="white"/>
<path d="M282.74 43.11C282.74 44.06 283.15 44.98 283.98 45.87C284.81 46.76 285.22 47.41 285.22 47.82V48.01C285.22 48.71 284.81 49.06 283.98 49.06H276.29C275.34 49.06 274.86 48.61 274.86 47.7L274.74 46.34C272.84 48.57 270.15 49.69 266.68 49.69C262.67 49.69 259.24 48.29 256.39 45.5C253.54 42.71 252.11 38.92 252.11 34.12C252.11 29.62 253.54 25.92 256.39 23.02C259.24 20.13 262.69 18.68 266.74 18.68C269.63 18.68 272.05 19.49 273.99 21.1V11.18C273.99 10.35 273.73 9.67 273.21 9.13C272.69 8.59 272.18 8.14 271.66 7.77C271.14 7.4 270.88 7.01 270.88 6.59V6.4C270.88 5.7 271.31 5.22 272.18 4.97L280.3 2.49C281.91 1.95 282.72 2.37 282.72 3.73V43.11H282.74ZM268.73 47.02C270.13 47.02 271.36 46.43 272.42 45.25C273.47 44.07 274 42.45 274 40.38V29.47C274 27.45 273.32 25.59 271.96 23.89C270.59 22.2 269.02 21.35 267.25 21.35C265.35 21.35 263.84 22.15 262.72 23.74C261.6 25.33 261.02 27.57 260.98 30.47C260.9 32.83 261.13 35.24 261.69 37.72C262.25 40.2 263.16 42.36 264.42 44.2C265.68 46.04 267.12 46.98 268.73 47.02V47.02Z" fill="white"/>
<path d="M288.51 49.07C287.6 49.07 287.15 48.72 287.15 48.02V47.77C287.15 47.36 287.54 46.72 288.33 45.85C289.12 44.98 289.51 44.05 289.51 43.06V29.05C289.51 28.02 289.12 27.05 288.33 26.14C287.54 25.23 287.15 24.61 287.15 24.28V24.09C287.15 23.68 287.58 23.24 288.45 22.79L296.2 18.95C296.99 18.62 297.61 18.59 298.06 18.86C298.51 19.13 298.74 19.57 298.74 20.19V43.07C298.74 44.06 299.17 44.99 300.04 45.86C300.91 46.73 301.34 47.37 301.34 47.78V48.03C301.34 48.73 300.86 49.08 299.91 49.08H288.5L288.51 49.07ZM298.52 13.39C297.42 14.4 295.97 14.91 294.15 14.91C292.33 14.91 290.85 14.4 289.72 13.39C288.58 12.38 288.01 11.07 288.01 9.45C288.01 7.83 288.58 6.59 289.72 5.57C290.86 4.56 292.33 4.05 294.15 4.05C295.97 4.05 297.43 4.56 298.52 5.57C299.61 6.58 300.16 7.87 300.16 9.45C300.16 11.03 299.61 12.37 298.52 13.39V13.39Z" fill="white"/>
<path d="M318.7 49.69C314.11 49.69 310.3 48.16 307.26 45.1C304.22 42.04 302.7 38.38 302.7 34.13C302.7 29.5 304.22 25.78 307.26 22.97C310.3 20.16 313.99 18.73 318.33 18.69C321.88 18.65 324.91 19.48 327.41 21.17C329.91 22.87 331.16 24.93 331.16 27.37C331.16 28.28 330.85 29.03 330.23 29.63C329.61 30.23 328.64 30.51 327.32 30.47C326.33 30.43 325.46 30.08 324.72 29.42C323.98 28.76 323.37 27.99 322.89 27.13C322.41 26.26 321.93 25.39 321.43 24.53C320.93 23.66 320.31 22.93 319.57 22.33C318.83 21.73 317.96 21.43 316.97 21.43C315.23 21.43 313.84 22.22 312.79 23.79C311.74 25.36 311.21 27.32 311.21 29.68C311.21 33.81 312.17 37.12 314.09 39.6C316.01 42.08 318.56 43.32 321.75 43.32C324.94 43.32 327.5 41.87 329.19 38.98C329.44 38.65 329.74 38.45 330.09 38.39C330.44 38.33 330.75 38.41 331.02 38.64C331.29 38.87 331.4 39.19 331.36 39.6C331.15 42.37 329.94 44.75 327.73 46.73C325.52 48.71 322.51 49.71 318.71 49.71L318.7 49.69Z" fill="white"/>
<path d="M35.85 6.15C27.65 -2.05 14.35 -2.05 6.15 6.15C-2.05 14.35 -2.05 27.65 6.15 35.85L21 50.7L35.85 35.85C44.05 27.65 44.05 14.35 35.85 6.15V6.15ZM35.72 22.89L30.24 25.08C27.89 26.02 26.02 27.89 25.08 30.24L22.89 35.72C22.21 37.43 19.79 37.43 19.11 35.72L16.92 30.24C15.98 27.89 14.11 26.02 11.76 25.08L6.28 22.89C4.57 22.21 4.57 19.79 6.28 19.11L11.76 16.92C14.11 15.98 15.98 14.11 16.92 11.76L19.11 6.28C19.79 4.57 22.21 4.57 22.89 6.28L25.08 11.76C26.02 14.11 27.89 15.98 30.24 16.92L35.72 19.11C37.43 19.79 37.43 22.21 35.72 22.89V22.89Z" fill="white"/>
</g>
<defs>
<clipPath id="clip0_1107_9076">
<rect width="331.36" height="62.52" fill="white"/>
</clipPath>
</defs>
</svg>
